<?xml version="1.0" encoding="UTF-8"?><svg id="uuid-74985a2b-551a-4b67-a683-ce3409cb2d9a" xmlns="http://www.w3.org/2000/svg" viewBox="0 0 77 33.34"><defs><style>.uuid-c6380f0e-1ca6-48a5-88a6-494b4a0ff591{fill:#262937;}.uuid-45f38393-1b7f-446a-b679-f365659f2fa0{fill:#989aa4;}.uuid-7f83b88f-7cac-424b-8a20-148020f6f77c{fill:#fdfdfe;}.uuid-a80b294b-6e8a-4f82-a54c-472ca2f40626{fill:#94969f;}.uuid-9142c53e-d3a0-4453-809c-f0457fd5af63{fill:#272937;}.uuid-02ecd4db-5151-4602-aa52-cf8a67b451c4{fill:#272a38;}.uuid-dfd36955-8206-41fa-adb1-42c5b8620e7b{fill:#fcfdfc;}.uuid-75a7b45e-5610-4cad-ae54-b5423f256729{fill:#666772;}.uuid-9826dfd8-d79f-4291-9cf9-a7c2da3fd1e1{fill:#282c3a;}.uuid-6a2e6fc2-3408-4128-b75a-f68e959172be{fill:#fdfcfc;}.uuid-d8cae49d-03e8-4ecf-b6fa-62f877dc3ab1{fill:#4f5366;}.uuid-85d1f4a5-03c1-4160-a83b-9ad568ff686d{fill:#262836;}.uuid-dba7fc72-f161-4841-8d92-167dd4fbfb5f{fill:#c5c2d0;}.uuid-789c8ce7-5be4-4e97-994f-3618d986c6eb{fill:#f9f9f9;}.uuid-d80c81bb-0bf1-40b0-9865-cf7092547b78{fill:#252937;}.uuid-fe7b0455-fa06-4900-9d9f-e6ff9cbf46f2{fill:#fefefe;}.uuid-e267145b-1cac-4425-8675-db1569a65822{fill:#dddee1;}.uuid-e4fad727-efe2-4287-9d69-04e49e371624{fill:#282b38;}.uuid-778edbb0-3abc-4123-bc71-eeb55702d9e6{fill:#262938;}.uuid-ed9a6793-2334-4f65-8007-09e5d180b0ce{fill:#cfd5dd;}.uuid-ccd5120f-5b6f-4f10-855c-d92b7b18d81e{fill:#fdfdfd;}.uuid-ea04ed9a-3707-4def-9776-76d998b14251{fill:#fcfdfd;}</style></defs><g id="uuid-1b1943c8-c0d7-440a-ae0f-b3c54ab605f7"><path class="uuid-e4fad727-efe2-4287-9d69-04e49e371624" d="M34.07,29.61c-.12.25-.64.26-.86.08-.11-.86-.06-1.85,0-2.76.35-.12.59-.09.87-.04.11.89.02,1.7,0,2.73Z"/><path class="uuid-c6380f0e-1ca6-48a5-88a6-494b4a0ff591" d="M64.84,5.46c-1.93-.34-2.12-.49-4.18-.03-.09.02-.11.06-.03.07,1.46-.21,2.81-.18,4.23.03v3.12c-1.53-.33-3.03-.41-4.51.13-.01-1.11-.06-2.12.01-3.19.05-.83.96-.8,1.6-.92-.36-.31-.35-.77-.31-1.23-.95-.26-1.98,0-2.98.03L49.81.04c1.96.06,3.63.65,5.45,1.01,2.21.44,4.29,1,6.42,1.71.24-.53.65-.86,1.13-.84.62.02.88.62,1.01,1.11l3.55-.22c3.2-.2,6.33.51,9.62.89-.53.56-1.24.49-1.91.54-2.57.17-5.07.35-7.6.85-.57.11-2.58-1.18-3.59-1.29-.15.28-.24.58-.35.88.55.08,1.1.12,1.28.79Z"/><path class="uuid-c6380f0e-1ca6-48a5-88a6-494b4a0ff591" d="M20.95,2.38l-2.17.82c-.4.15-.84.01-1.3.15-.41.13-.9-.08-1.35.14.03.4-.06.78-.23,1.17.55.11,1.28.09,1.34.68-1.01.08-1.76-.41-2.9-.13-.42.1-.87-.05-1.25.22.31.11.56,0,.81-.03.66-.05,3.08-.09,3.41.11.06.04.1.14.09.28l-.02,3.02c-1.4-.56-2.94-.54-4.41-.19-.17-.14-.19-.59-.04-.67.34-.16.82-.11,1.1-.16.93-.17,1.79-.02,2.71.04.06.14.3.17.44.04-.15-.11-.3,0-.44-.04-.3-.38-3.45-.23-3.91-.02.1-1.29-.38-2.9.85-3.04l.71-.08c-.13-.11-.29-.13-.33-.29l-.14-.53c-.06-.23.06-.5-.05-.76.16-.51.36-1.01.85-1.14.59-.16,1.12.18,1.37.77,1.78-.61,3.52-1.19,5.39-1.6s3.56-1.02,5.54-1.15l-6.06,2.38Z"/><path class="uuid-a80b294b-6e8a-4f82-a54c-472ca2f40626" d="M13.92,3.88l.14.53c-.1.21-.24.16-.41.23-1.39.61-2.64,2.34-3.25,2.45l-9.2,1.68c-.41.08-.77,0-1.21-.11.27-.15.51-.27.8-.38l8.3-3.18c.16-.06.34-.06.34-.22,2.34.39,1.83-.43,4.48-.99Z"/><path class="uuid-75a7b45e-5610-4cad-ae54-b5423f256729" d="M13.87,3.12c.11.26-.01.53.05.76-2.65.57-2.13,1.39-4.48.99s-4.95-.55-7.47-.72c-.45-.03-.9-.04-1.26-.4.99-.2,1.88-.26,2.85-.34l6.75-.56c1.23-.1,2.4.18,3.56.26Z"/><path class="uuid-45f38393-1b7f-446a-b679-f365659f2fa0" d="M17.48,3.36c.46-.14.89,0,1.3-.15l2.17-.82c2.1.08,4.19-.05,6.42.18-1,.42-1.98.46-2.98.6l-5.17.71c-.74.1-1.46-.17-2.18-.14.15-.3.45-.13.45-.37Z"/><path class="uuid-789c8ce7-5be4-4e97-994f-3618d986c6eb" d="M16.75,7.84c.14.05.29-.07.44.04-.14.13-.38.1-.44-.04Z"/><path class="uuid-9142c53e-d3a0-4453-809c-f0457fd5af63" d="M47.79,33.34c-.63-.11-1.05-.68-.92-1.25.03-.13.32-.19.33-.33-.49-2.23-1.13-4.35-2.06-6.4-.62-1.38-1.45-2.54-2.63-3.55l2.11-1.84c.2.36.42.66.58,1.04,1.5,3.45,2.5,7.07,3,10.78.18.09.37.22.35.42-.03.46-.28.85-.77,1.13Z"/><path class="uuid-778edbb0-3abc-4123-bc71-eeb55702d9e6" d="M29.71,32.55c-.15.34-.43.8-.84.75-.52-.07-.8-.65-.84-1.07-.02-.28.39-.3.41-.45.43-3.04,1.14-5.97,2.21-8.84.39-1.05.78-2.03,1.37-2.99l2.08,1.82c-1.23,1.03-2.03,2.25-2.67,3.67-.9,2.05-1.51,4.12-2.03,6.34.31.17.48.4.31.77Z"/><path class="uuid-d80c81bb-0bf1-40b0-9865-cf7092547b78" d="M42.28,29.81s-.03-.08-.11-.12v-2.79c.21-.07.84-.16.89.15.14.89.08,1.8,0,2.68-.23.16-.58.05-.78.09Z"/><path class="uuid-85d1f4a5-03c1-4160-a83b-9ad568ff686d" d="M45.31,20.44c-.78-.12.75-2.21.78-2.83-1.12,1.39-1.95,2.19-3.38,3.35-2.96-.29-5.84-.23-8.79-.01l-2.03-1.77-1.24-1.33c.29,1.06,1.41,2.37.67,2.62-.84-1.19-.95-2.83-2.03-3.33l-11.55-5.32c-.6-.28-2.54.42-4.09-.13-.35-.12-.61-.37-.97-.52-.69-.28-1.15-1.09-.82-1.81.19-.42.75-.43,1.15-.5,3.64-.58,4.28.58,5.72.86l6.84,1.37c2.84.57,5.68.17,8.46-.61,2.93-.81,5.77-.84,8.7,0,3.26.93,6.53,1.09,9.86.45l6.44-1.24,2.17-.79c1.31-.47,3.13-.39,4.44.28.78.4.07,1.8-.56,1.95-.53.13-1.16,1.13-4,.67-.76-.12-1.35-.09-2.07.22l-11.34,4.92c-.64.28-.95.56-1.21,1.2-.32.79-.66,1.57-1.13,2.3Z"/><path class="uuid-ccd5120f-5b6f-4f10-855c-d92b7b18d81e" d="M41.73,13.34c-.84-1.11-3.22-.95-4.5-.86-.73.05-1.36.29-1.92.78-.3-.18-.61-.27-.99-.31-2.31-.28-4.54-.62-6.76-1.11,2.94.07,4.92-.39,7.73-1.08,4.29-1.05,6.31.29,10.29.88,1.21.18,2.32.24,3.56.2-2.15.49-4.32.79-6.56,1.13-.34.05-.6.12-.87.37Z"/><path class="uuid-7f83b88f-7cac-424b-8a20-148020f6f77c" d="M40.16,16.46c-1.12.16-2.27.16-3.35-.03-.82-.14-1.19-.92-1.13-1.66.06-.69.59-1.28,1.37-1.39.95-.13,1.94-.14,2.88,0,.76.11,1.32.67,1.37,1.38s-.27,1.57-1.15,1.7Z"/><path class="uuid-ea04ed9a-3707-4def-9776-76d998b14251" d="M64.17,11.17c-.87.48-1.84.48-2.76.05.84-.42,1.81-.42,2.76-.05Z"/><path class="uuid-dfd36955-8206-41fa-adb1-42c5b8620e7b" d="M16.15,11.18c-.84.4-1.78.38-2.68.01.86-.36,1.74-.37,2.68-.01Z"/><path class="uuid-fe7b0455-fa06-4900-9d9f-e6ff9cbf46f2" d="M41.1,17.83c0,.34-4.7.16-4.68.17l-.61-.12c-.1-.13-.05-.16-.01-.18.13-.07.23.09.3.09l5.01.03Z"/><path class="uuid-02ecd4db-5151-4602-aa52-cf8a67b451c4" d="M42.08,26.82v3.03c-.03.22,0,.46-.04.74-.06.39-.43.65-.83.65l-5.68-.02c-.97,0-.41-1.61-.84-1.47-.2.06-.35.08-.43,0-.13-.12.04-.3.03-.42-.09-.74-.04-1.68-.02-2.44.2-.11.36.02.59-.03-.04-.53.07-1.21.67-1.23l1.12-.04c.08-.36,0-.77.19-1.1.17-.3.58-.12.85-.36l-1.13-.15c-.08-.54-.02-1.1.02-1.66-1.01-.16-1.32.17-2.21-1,2.71-.18,5.24-.18,7.93,0-.23.43-.64.86-1.09.9l-1.08.1c.02.56.08,1.08,0,1.66-.4.12-.75.03-1.2.09v1.52s2.48.07,2.48.07c.62.02.67.72.67,1.19Z"/><path class="uuid-dba7fc72-f161-4841-8d92-167dd4fbfb5f" d="M42.18,26.9v2.79c.07.04.12.07.1.12-.07.01-.14.1-.21.04v-3.03c.08-.04.16,0,.11.08Z"/><path class="uuid-e267145b-1cac-4425-8675-db1569a65822" d="M34.77,29.61c-.12-.02-.18-.11-.22-.21v-1.91c.11-.04.12-.14.22-.13v2.25Z"/><path class="uuid-d8cae49d-03e8-4ecf-b6fa-62f877dc3ab1" d="M37.51,25.65c-.1-.27-.09-.55,0-.88.1.27.09.55,0,.88Z"/><path class="uuid-6a2e6fc2-3408-4128-b75a-f68e959172be" d="M37.78,30.48c-.99-.26-1.65-1.16-1.67-2.1s.57-1.85,1.55-2.16c.96-.3,1.91.01,2.5.74s.62,1.73.12,2.54-1.46,1.25-2.5.98Z"/><path class="uuid-9826dfd8-d79f-4291-9cf9-a7c2da3fd1e1" d="M37.7,30.09c-.89-.33-1.34-1.18-1.24-2.02s.75-1.48,1.64-1.61c.83-.12,1.56.27,1.97.95s.3,1.47-.22,2.15c-.44.56-1.31.85-2.15.53Z"/><path class="uuid-ed9a6793-2334-4f65-8007-09e5d180b0ce" d="M38.34,28.17c.11,0,.15.06.16.11.02.12-.06.24-.13.26-.13.03-.22-.06-.22-.16,0-.09.07-.21.19-.21Z"/></g></svg>